<svg version="1.1" id="Layer_1" xmlns="http://www.w3.org/2000/svg" xmlns:xlink="http://www.w3.org/1999/xlink" x="0px" y="0px"
	 width="100%" viewBox="0 0 660 660" enable-background="new 0 0 660 660" xml:space="preserve">
<path fill="none" opacity="0" stroke="none"
	d="
M661.000000,237.000000 
	C661.000000,378.666656 661.000000,519.833313 661.000000,661.000000 
	C441.000031,661.000000 221.000092,661.000000 1.000097,661.000000 
	C1.000065,441.000061 1.000065,221.000137 1.000032,1.000156 
	C220.999893,1.000104 440.999786,1.000104 660.999878,1.000052 
	C661.000000,79.500000 661.000000,158.000000 661.000000,237.000000 
M465.224396,198.403793 
	C465.518433,198.583618 465.812500,198.763443 466.038818,198.950821 
	C466.038818,198.950821 466.054901,198.884613 466.266968,199.527939 
	C472.202118,205.206436 478.137238,210.884949 484.751465,217.072983 
	C488.769135,222.194092 496.934265,222.649078 501.959839,218.348282 
	C511.307098,210.349030 520.814758,202.537216 530.729980,195.135818 
	C538.035767,202.614487 545.398621,210.038544 552.624939,217.593216 
	C556.683472,221.836151 563.976196,222.543655 568.552429,218.686554 
	C582.593750,206.851746 596.492004,194.846207 610.596802,183.088074 
	C623.980469,171.931137 637.579346,161.032791 651.030212,149.955856 
	C655.321350,146.422104 656.277710,137.195053 652.712036,132.995178 
	C648.630310,128.187576 644.283447,123.605064 639.997803,118.203583 
	C636.774597,112.296112 632.713013,107.269272 625.687073,104.407059 
	C616.092590,96.616234 606.543335,88.769012 596.894104,81.046555 
	C578.154114,66.048492 556.999390,55.099628 535.213501,45.470581 
	C515.275574,36.658287 494.500458,30.114325 472.879486,25.218805 
	C471.306641,24.473007 469.783386,23.223783 468.152924,23.063269 
	C457.720581,22.036245 447.264648,21.248447 435.737061,20.289461 
	C414.976135,17.863127 394.194214,17.977139 372.440063,19.793547 
	C364.637299,19.601141 356.834564,19.408737 348.233124,18.954641 
	C339.144745,19.042171 330.056335,19.129702 320.084503,19.062319 
	C318.554077,19.050817 317.023651,19.039314 314.621552,18.963547 
	C303.378540,19.965027 292.135498,20.966507 280.061310,22.043804 
	C274.751160,22.947449 269.337067,23.457865 264.150452,24.828899 
	C248.935867,28.850750 233.764206,33.054085 218.672928,37.515144 
	C211.512802,39.631721 204.381683,42.068924 197.581146,45.125591 
	C188.203064,49.340801 178.910263,53.864559 170.015335,59.007473 
	C157.351227,66.329666 144.836823,73.972527 132.727005,82.170509 
	C124.283676,87.886391 116.625900,94.762650 108.211754,101.367332 
	C107.788231,101.855324 107.364708,102.343315 106.599762,103.228920 
	C106.343636,103.466187 106.087509,103.703453 105.448212,104.144409 
	C105.056152,104.518456 104.664101,104.892502 103.855118,105.895935 
	C99.551201,110.211975 95.247292,114.528023 90.266258,119.010918 
	C85.505508,124.551994 80.744759,130.093063 75.918915,135.866272 
	C75.918915,135.866272 75.708313,135.983612 75.305367,136.247437 
	C74.909393,136.732712 74.513428,137.217987 74.014351,138.417328 
	C73.553467,138.965927 73.092583,139.514526 72.354782,140.218735 
	C72.115799,140.438217 71.922356,140.693207 71.366570,141.397003 
	C71.230347,141.534500 71.094116,141.672012 70.562752,142.110291 
	C70.052528,142.927429 69.542305,143.744568 68.944641,144.829926 
	C68.944641,144.829926 68.708817,144.984726 68.241295,145.320374 
	C67.504921,146.400803 66.768547,147.481247 65.944740,148.829819 
	C65.944740,148.829819 65.708946,148.984558 65.256584,149.304047 
	C64.831749,150.079071 64.406921,150.854095 63.919266,151.864029 
	C63.919266,151.864029 63.708061,151.984528 63.225399,152.339249 
	C62.733906,153.201340 62.242413,154.063431 61.323471,155.235062 
	C60.923161,155.782242 60.522846,156.329422 60.032925,157.531647 
	C59.903347,157.709900 59.773769,157.888168 59.234077,158.330215 
	C58.863205,158.845627 58.492336,159.361023 58.031487,160.533035 
	C57.901272,160.711502 57.771061,160.889969 57.200848,161.369278 
	C56.796932,162.122787 56.393013,162.876297 55.922848,163.864990 
	C55.922848,163.864990 55.712959,163.990051 55.250359,164.314072 
	C54.557186,165.333771 53.864014,166.353485 53.004742,168.296829 
	C52.851830,168.569733 52.698914,168.842621 52.113022,169.447754 
	C51.458195,170.469940 50.803368,171.492126 50.046741,173.342163 
	C49.911087,173.584839 49.775429,173.827530 49.161377,174.415421 
	C48.449482,175.793167 47.737591,177.170898 46.833885,178.891266 
	C46.833885,178.891266 46.489815,179.080444 46.336029,179.212006 
	C46.336029,179.212006 46.126560,179.539810 46.041679,180.354965 
	C45.907852,180.593124 45.774025,180.831284 45.133614,181.434326 
	C41.467060,188.269882 37.800507,195.105453 34.002445,202.690414 
	C33.326656,205.004150 32.650864,207.317871 31.839458,209.905807 
	C31.839458,209.905807 31.569290,210.049286 31.186363,210.519440 
	C30.782242,211.889923 30.378119,213.260422 29.839199,214.905777 
	C29.839199,214.905777 29.569191,215.050064 29.171249,215.557175 
	C26.743458,221.697418 24.315666,227.837677 21.416243,234.417374 
	C21.264650,235.262573 21.113058,236.107758 20.483624,237.481247 
	C20.339296,238.657150 20.194971,239.833069 19.588497,241.369476 
	C19.443956,241.918259 19.299416,242.467026 18.815207,243.696014 
	C18.519583,245.420090 18.223959,247.144150 17.405066,249.401398 
	C16.926886,251.904495 16.448704,254.407608 15.425935,257.441406 
	C14.942749,260.289673 14.459563,263.137939 13.439729,266.503448 
	C13.282057,267.991089 13.124385,269.478729 12.423760,271.258545 
	C12.370818,272.841064 12.317876,274.423553 12.128985,276.494110 
	C12.088684,276.658112 12.048382,276.822113 11.439222,277.499329 
	C10.962944,281.671600 10.486667,285.843872 10.026697,290.501648 
	C10.026697,290.501648 10.004025,290.986938 9.431822,291.522797 
	C8.863693,296.672028 8.295565,301.821228 8.131951,307.505859 
	C8.408978,307.850739 8.686004,308.195618 9.113439,308.836548 
	C9.162492,309.063599 9.131205,309.278961 8.695918,309.345825 
	C8.695918,309.345825 8.344635,309.344147 7.642613,309.502716 
	C7.434246,310.113464 7.046111,310.723633 7.044082,311.335083 
	C7.004412,323.290466 6.989755,335.246124 7.045656,347.201355 
	C7.049889,348.106567 7.620868,349.009155 7.800019,350.617676 
	C7.866459,353.422455 7.631618,356.274048 8.058939,359.022705 
	C9.109667,365.781372 10.465055,372.492676 11.890699,379.383728 
	C11.890699,379.383728 11.745954,379.588745 11.338468,379.438873 
	C11.237316,379.538879 11.136165,379.638916 11.035017,379.738953 
	C11.261088,379.904541 11.487160,380.070160 11.624011,380.322998 
	C11.624011,380.322998 11.540177,380.230560 11.238216,381.136383 
	C12.207503,386.755066 13.176790,392.373718 14.084152,398.508728 
	C14.111986,398.679840 14.139820,398.850922 14.431092,399.741791 
	C16.579977,408.169250 18.448606,416.681580 20.967499,424.996948 
	C22.939283,431.506256 25.716858,437.771484 28.057087,444.796356 
	C28.358902,445.579010 28.660715,446.361694 29.240671,447.642212 
	C29.559948,448.112488 29.879225,448.582764 29.915524,449.526093 
	C30.262348,450.349792 30.609173,451.173462 30.954720,452.033264 
	C30.954720,452.033264 30.990440,452.038757 30.994463,452.759338 
	C31.996799,454.528046 32.999134,456.296783 34.038242,458.807953 
	C36.193363,462.762787 38.348480,466.717651 40.472889,470.798492 
	C40.472889,470.798492 40.346455,470.769623 40.274685,471.481720 
	C40.717850,471.969666 41.161015,472.457642 42.071026,473.137390 
	C42.075481,473.572479 42.079937,474.007599 42.309959,475.197906 
	C42.633137,475.609955 42.956314,476.021973 43.195892,476.274750 
	C43.195892,476.274750 43.356445,476.193665 43.232750,476.985596 
	C44.218075,479.003876 45.203396,481.022186 46.134109,483.665131 
	C46.730862,484.460114 47.327614,485.255066 48.055836,486.728333 
	C49.332848,488.853363 50.609859,490.978363 52.031479,493.768646 
	C52.867531,494.400238 53.703587,495.031830 54.440216,495.710968 
	C54.440216,495.710968 54.402302,495.607483 54.347038,496.311523 
	C55.193497,497.908661 56.039955,499.505768 57.011330,501.721283 
	C57.654190,502.516693 58.297047,503.312073 59.260548,504.700104 
	C61.849892,507.884186 64.439240,511.068298 67.379906,514.611084 
	C67.498978,514.728699 67.618057,514.846375 67.922379,515.297729 
	C68.201210,515.544128 68.480042,515.790466 68.921097,516.114563 
	C68.921097,516.114563 68.956741,516.290894 69.003265,516.748596 
	C69.340378,517.242981 69.677498,517.737305 70.372025,518.601624 
	C70.493729,518.722473 70.615433,518.843262 70.922386,519.297729 
	C71.201218,519.544128 71.480049,519.790466 71.920967,520.115356 
	C71.920967,520.115356 71.955009,520.292175 72.040428,520.885620 
	C72.947083,521.936768 73.853737,522.987976 74.933197,524.129822 
	C74.933197,524.129822 74.980164,524.319336 75.054901,524.511292 
	C75.054901,524.511292 75.337418,524.787781 75.946487,525.269470 
	C76.334427,525.918335 76.722359,526.567261 77.203270,527.562134 
	C77.480530,527.795471 77.757790,528.028809 78.383583,528.615540 
	C78.383583,528.615540 78.737137,528.963989 78.922379,529.297729 
	C79.201210,529.544128 79.480042,529.790466 79.938126,530.137329 
	C79.938126,530.137329 79.989929,530.336243 80.162704,530.664429 
	C80.448212,531.177979 80.733727,531.691589 81.684441,532.979797 
	C82.157715,533.466675 82.630989,533.953613 83.259460,534.720703 
	C83.486130,534.956299 83.749199,535.140808 84.386871,535.617554 
	C84.386871,535.617554 84.731659,535.954285 84.908127,536.277161 
	C85.177452,536.510620 85.446777,536.744080 86.214401,537.501770 
	C86.531738,537.861572 86.849075,538.221436 87.349487,538.858337 
	C87.676773,539.164856 88.004051,539.471436 88.950768,540.262756 
	C90.012138,541.416809 91.073517,542.570923 92.104805,544.334351 
	C96.115662,548.183838 100.126518,552.033386 105.031281,556.454895 
	C105.520386,556.963135 106.009499,557.471436 106.655212,558.164307 
	C106.911072,558.389771 107.166939,558.615234 108.081734,559.348450 
	C108.446800,559.764160 108.811867,560.179810 109.446526,560.952454 
	C110.151619,561.600464 110.856705,562.248474 112.079796,563.404968 
	C113.157478,564.146545 114.315636,564.794739 115.300880,565.643616 
	C132.777649,580.701599 151.683090,593.719299 172.207062,604.202026 
	C184.773514,610.620483 197.834534,616.070679 211.183441,622.096741 
	C224.465134,626.051575 237.746841,630.006409 251.920624,633.978455 
	C252.860519,634.271606 253.781143,634.680969 254.743179,634.840332 
	C268.143280,637.060120 281.549042,639.245605 295.782196,641.754639 
	C297.545898,641.698547 299.309631,641.642517 301.756439,641.608032 
	C302.825989,641.886902 303.895569,642.165771 305.840210,642.753052 
	C309.582764,642.698181 313.325287,642.643250 317.836273,642.578735 
	C319.545746,642.867065 321.255219,643.155334 323.851166,643.752014 
	C327.270416,643.794373 330.698822,644.008362 334.106140,643.826660 
	C337.021088,643.671143 339.911804,643.061951 343.698761,642.634827 
	C345.741913,642.600159 347.785034,642.565491 350.760895,642.869446 
	C354.875610,642.559875 358.990326,642.250244 363.542755,642.004700 
	C364.651337,641.840210 365.759918,641.675781 368.291626,641.500610 
	C369.237885,641.434631 370.184143,641.368652 371.569458,642.061646 
	C377.121826,642.249390 382.674194,642.437134 388.605011,642.727417 
	C388.605011,642.727417 388.896759,642.989380 389.450653,643.572510 
	C397.334930,643.378174 405.219208,643.183777 413.386139,642.726624 
	C413.386139,642.726624 413.757843,642.622620 414.712891,642.845764 
	C422.809235,642.557129 430.915680,642.425598 438.997070,641.905029 
	C442.378448,641.687195 445.706635,640.643738 449.728699,639.945312 
	C450.766998,639.608215 451.805267,639.271057 453.401245,639.513245 
	C461.535767,637.973633 469.670319,636.433960 478.499756,634.799500 
	C479.535553,634.302673 480.527130,633.659668 481.613770,633.331055 
	C496.656372,628.782898 512.041870,625.136230 526.669800,619.515808 
	C540.702209,614.124268 554.411438,607.493286 567.442078,599.983093 
	C588.689026,587.737244 608.516174,573.335083 626.801697,555.991089 
	C631.157959,551.613281 635.514282,547.235474 640.128113,542.240662 
	C644.134583,537.807739 648.201233,533.427307 652.131470,528.927795 
	C656.573914,523.842041 655.458496,514.721313 650.256165,510.552856 
	C643.549011,505.178650 637.019104,499.582977 630.422974,494.070648 
	C609.691833,476.745819 588.982178,459.395203 568.220276,442.107269 
	C564.849426,439.300507 556.886597,439.034912 554.351501,441.586395 
	C546.253174,449.737000 538.236328,457.968597 529.556580,466.104431 
	C529.345093,466.110413 529.133545,466.116394 528.616882,465.637939 
	C528.081665,465.122314 527.546509,464.606659 526.825256,463.603363 
	C526.515930,463.511749 526.206665,463.420105 525.293152,462.999481 
	C517.861450,456.594757 510.585236,449.997131 502.951447,443.843048 
	C496.202423,438.402283 490.415070,438.477814 484.918213,443.606842 
	C484.584930,444.052643 484.251648,444.498474 483.938049,444.925751 
	C483.938049,444.925751 483.927246,444.900970 483.250031,445.040039 
	C481.196259,447.409332 479.142487,449.778656 477.030304,452.088257 
	C477.030304,452.088257 477.090515,452.030426 476.621826,452.254669 
	C476.424683,452.533295 476.227570,452.811920 476.088867,453.029938 
	C476.088867,453.029938 476.148987,453.088898 475.441223,453.135010 
	C472.000977,456.449738 468.560730,459.764465 464.866821,463.716522 
	C453.941681,471.325500 443.355560,479.496094 431.981964,486.362305 
	C423.190674,491.669617 413.649231,495.977783 404.008392,499.567474 
	C393.902039,503.330475 383.279419,505.707031 372.382874,508.599152 
	C372.246521,508.699432 372.110199,508.799683 371.273682,508.834564 
	C370.582062,508.946350 369.890472,509.058136 368.330292,508.952972 
	C367.734528,508.935150 367.138733,508.917297 365.943878,508.650146 
	C336.313049,501.727661 309.273346,489.682861 286.103180,469.443237 
	C269.425873,454.875336 255.093063,438.381195 245.546661,418.462860 
	C239.207581,405.236542 235.068939,390.955627 230.516266,376.612091 
	C229.665344,370.659149 228.870468,364.696899 227.889450,358.765472 
	C227.772675,358.059387 226.640625,357.521179 225.796555,356.160187 
	C225.854919,338.806305 225.913284,321.452454 226.725037,303.894836 
	C227.390442,302.138702 228.416565,300.429260 228.651031,298.617340 
	C229.260025,293.911011 229.521042,289.159668 229.995056,283.518036 
	C232.887756,275.003479 235.761871,266.482513 238.677444,257.975800 
	C243.089951,245.101486 250.185318,233.697540 257.884338,222.586716 
	C267.685150,208.442703 279.353607,196.011902 293.264313,186.021896 
	C303.556183,178.630753 314.430206,171.843643 325.718536,166.114822 
	C334.102356,161.860031 343.535095,159.637314 352.562805,156.700500 
	C357.273956,155.167938 362.119293,154.047913 367.675568,152.867004 
	C368.454620,152.819229 369.233673,152.771469 370.810516,152.867523 
	C376.441071,153.986923 382.384308,154.310120 387.643372,156.375443 
	C403.227203,162.495529 418.908112,168.575180 433.830322,176.099869 
	C443.602020,181.027359 452.122772,188.435623 461.546783,195.003387 
	C462.053894,195.341568 462.560974,195.679764 462.983612,196.043350 
	C462.983612,196.043350 462.957184,195.959198 463.225494,196.407349 
	C463.512054,196.597137 463.798584,196.786926 464.016846,196.980347 
	C464.016846,196.980347 464.020844,196.912094 464.249664,197.379257 
	C464.528687,197.576614 464.807739,197.773972 465.020447,197.976334 
	C465.020447,197.976334 465.030518,197.910553 465.224396,198.403793 
z"/>
<path fill="#C8008C" opacity="1.000000" stroke="none" 
	d="
M370.012726,152.723694 
	C369.233673,152.771469 368.454620,152.819229 367.036011,152.548965 
	C365.003021,151.807007 363.636810,151.185837 362.212036,150.989120 
	C344.618439,148.560211 327.003448,148.341919 309.419891,150.983215 
	C253.633087,159.363144 210.470276,187.114014 181.674744,235.836426 
	C161.088974,270.667786 154.204132,308.791534 157.842346,348.865234 
	C162.014221,394.817108 179.843231,434.413025 214.163284,465.773529 
	C252.029572,500.374512 297.259430,514.219177 347.953552,511.571594 
	C354.179565,511.246460 360.347900,509.817108 366.542969,508.899475 
	C367.138733,508.917297 367.734528,508.935150 368.988586,509.183685 
	C370.422546,509.242920 371.198242,509.071411 371.973907,508.899902 
	C372.110199,508.799683 372.246521,508.699432 372.940674,508.895752 
	C374.436951,509.498077 375.354279,509.933044 376.317047,510.090515 
	C396.219696,513.345947 416.122284,512.601807 435.916840,509.426697 
	C463.741364,504.963562 489.483887,494.858795 512.929077,479.223053 
	C518.634766,475.417938 523.610657,470.518616 528.922058,466.122437 
	C529.133545,466.116394 529.345093,466.110413 530.005127,466.426392 
	C531.373230,467.697693 532.216125,468.738617 533.223755,469.582764 
	C550.068787,483.694885 566.990662,497.716370 583.711487,511.973724 
	C585.462830,513.466980 586.552612,516.208191 587.089417,518.566162 
	C588.777222,525.980835 583.164490,530.005127 579.035400,534.666199 
	C533.630615,585.921692 477.323090,618.790894 410.714600,634.061218 
	C398.254700,636.917786 385.536133,638.645996 372.699951,640.886780 
	C372.018768,641.020020 371.574585,641.161316 371.130402,641.302612 
	C370.184143,641.368652 369.237885,641.434631 367.543488,641.395691 
	C365.565247,641.507385 364.335144,641.723999 363.105042,641.940613 
	C358.990326,642.250244 354.875610,642.559875 350.527008,642.412964 
	C353.161804,641.459900 356.030487,640.963379 359.615814,640.342834 
	C203.289215,621.831360 81.723198,503.423340 76.310951,341.163239 
	C74.195312,277.736267 88.996117,218.075043 123.864029,164.532242 
	C179.317932,79.377823 260.041229,34.807186 359.136841,20.491831 
	C355.768494,20.066666 352.400146,19.641500 349.031799,19.216335 
	C356.834564,19.408737 364.637299,19.601141 373.277710,19.877617 
	C376.860870,20.599203 379.575958,21.455854 382.356354,21.841860 
	C437.081787,29.439392 486.782257,49.427505 531.250549,82.255257 
	C551.173035,96.962608 569.065125,113.859360 584.729919,133.055847 
	C589.173035,138.500671 588.175293,145.680649 582.880432,150.101807 
	C565.242188,164.829788 547.646545,179.608856 529.752563,194.144806 
	C506.927460,176.033417 481.958801,162.948502 454.060577,155.547623 
	C433.977753,150.220016 413.532928,148.266525 392.863983,149.245682 
	C385.209167,149.608307 377.627655,151.518997 370.012726,152.723694 
z"/>
<path fill="#FD008B" opacity="1.000000" stroke="none" 
	d="
M348.632446,19.085487 
	C352.400146,19.641500 355.768494,20.066666 359.136841,20.491831 
	C260.041229,34.807186 179.317932,79.377823 123.864029,164.532242 
	C88.996117,218.075043 74.195312,277.736267 76.310951,341.163239 
	C81.723198,503.423340 203.289215,621.831360 359.615814,640.342834 
	C356.030487,640.963379 353.161804,641.459900 350.060669,642.243652 
	C347.785034,642.565491 345.741913,642.600159 342.917572,642.440369 
	C337.685455,642.130188 333.229645,641.846985 328.785797,641.975830 
	C326.832886,642.032471 324.904297,642.928589 322.964691,643.443604 
	C321.255219,643.155334 319.545746,642.867065 317.248993,642.275879 
	C312.762848,642.130188 308.864014,642.287415 304.965149,642.444580 
	C303.895569,642.165771 302.825989,641.886902 301.248474,641.310730 
	C298.811493,641.155457 296.882446,641.297485 294.953430,641.439514 
	C281.549042,639.245605 268.143280,637.060120 254.743179,634.840332 
	C253.781143,634.680969 252.860519,634.271606 251.313873,633.799866 
	C240.762329,630.571655 230.831299,627.476074 220.865082,624.498230 
	C217.513855,623.496826 214.073212,622.794678 210.673431,621.955811 
	C197.834534,616.070679 184.773514,610.620483 172.207062,604.202026 
	C151.683090,593.719299 132.777649,580.701599 115.300880,565.643616 
	C114.315636,564.794739 113.157478,564.146545 111.783936,562.880188 
	C110.717690,561.768799 109.947311,561.182129 109.176933,560.595520 
	C108.811867,560.179810 108.446800,559.764160 107.728127,558.941040 
	C107.082550,558.348938 106.790581,558.164307 106.498611,557.979675 
	C106.009499,557.471436 105.520386,556.963135 104.539932,555.886597 
	C100.077347,551.453796 96.106117,547.589417 92.134888,543.724976 
	C91.073517,542.570923 90.012138,541.416809 88.624313,539.836853 
	C87.920708,539.134399 87.543556,538.857788 87.166405,538.581238 
	C86.849075,538.221436 86.531738,537.861572 85.922081,537.041565 
	C85.330399,536.372314 85.031036,536.163269 84.731659,535.954285 
	C84.731659,535.954285 84.386871,535.617554 84.229919,535.259766 
	C83.750069,534.748169 83.427170,534.594360 83.104263,534.440491 
	C82.630989,533.953613 82.157715,533.466675 81.485725,532.526672 
	C80.854652,531.494446 80.422295,530.915344 79.989929,530.336243 
	C79.989929,530.336243 79.938126,530.137329 79.801628,529.883606 
	C79.355804,529.407898 79.046478,529.185913 78.737144,528.963989 
	C78.737137,528.963989 78.383583,528.615540 78.219566,528.242432 
	C77.740463,527.651611 77.425377,527.433899 77.110291,527.216125 
	C76.722359,526.567261 76.334427,525.918335 75.637772,524.919495 
	C75.329048,524.569519 74.980164,524.319336 74.980164,524.319336 
	C74.980164,524.319336 74.933197,524.129822 74.761414,523.793762 
	C73.711426,522.402527 72.833214,521.347351 71.955009,520.292175 
	C71.955009,520.292175 71.920967,520.115356 71.793037,519.872620 
	C71.355782,519.407898 71.046455,519.185974 70.737137,518.963989 
	C70.615433,518.843262 70.493729,518.722473 70.243080,518.181152 
	C69.728333,517.270813 69.342529,516.780884 68.956734,516.290894 
	C68.956741,516.290894 68.921097,516.114563 68.793053,515.872253 
	C68.355721,515.407959 68.046432,515.185974 67.737137,514.963989 
	C67.618057,514.846375 67.498978,514.728699 67.226425,514.115234 
	C64.448402,509.687988 61.823872,505.756683 59.089027,501.497894 
	C57.453243,499.316132 55.927769,497.461792 54.402298,495.607483 
	C54.402302,495.607483 54.440216,495.710968 54.567699,495.389282 
	C54.490353,494.712524 54.285526,494.357422 53.982231,493.657654 
	C51.975410,490.162292 50.067055,487.011536 48.090508,483.508667 
	C46.467026,480.835541 44.911739,478.514618 43.356445,476.193665 
	C43.356445,476.193665 43.195892,476.274750 43.277771,475.905579 
	C42.934566,475.171814 42.509483,474.807251 42.084396,474.442688 
	C42.079937,474.007599 42.075481,473.572479 41.924446,472.677338 
	C41.300724,471.734741 40.823586,471.252197 40.346451,470.769623 
	C40.346455,470.769623 40.472889,470.798492 40.564476,470.349182 
	C38.557423,465.407227 36.458786,460.914551 34.363865,456.302277 
	C34.367580,456.182678 34.185436,456.027466 34.126938,455.639587 
	C31.083759,447.363129 27.754200,439.584351 25.199154,431.559021 
	C21.779722,420.818634 18.960417,409.887177 15.874756,398.757568 
	C15.778907,398.312042 15.691716,398.146698 15.617609,397.615601 
	C14.267188,391.576782 12.903683,385.903656 11.540176,380.230560 
	C11.540177,380.230560 11.624011,380.322998 11.786715,380.122620 
	C11.949417,379.922272 11.745954,379.588745 11.745954,379.588745 
	C11.745954,379.588745 11.890699,379.383728 12.014776,379.167114 
	C11.790108,376.803589 11.441362,374.656708 11.202484,372.334045 
	C11.396664,371.866821 11.330626,371.615173 11.169940,371.066589 
	C10.843366,369.007599 10.461087,367.285370 10.289801,365.300232 
	C10.375708,364.179016 10.250622,363.320709 10.180766,362.039185 
	C9.977639,359.024536 9.719283,356.433105 9.506458,353.586975 
	C9.388822,353.034027 9.225654,352.735748 9.178900,352.295380 
	C9.373931,351.888947 9.311622,351.663635 9.227666,351.228973 
	C9.271225,350.466980 9.195504,349.953278 9.187082,349.067596 
	C9.073351,347.493835 8.892319,346.292084 8.750841,344.617676 
	C8.711728,337.728760 8.633060,331.312439 8.750246,324.554138 
	C9.019181,319.796814 9.092264,315.381561 9.203470,310.588074 
	C9.167588,309.967438 9.093583,309.725067 9.019577,309.482666 
	C9.131205,309.278961 9.162492,309.063599 9.170656,308.279510 
	C9.235431,307.435974 9.242988,307.149506 9.396139,306.610291 
	C9.470829,305.797974 9.399924,305.238403 9.564112,304.415344 
	C9.922030,302.074585 10.044859,299.997375 10.297321,297.583649 
	C10.408299,296.065796 10.389645,294.884399 10.587337,293.467896 
	C10.924914,291.801910 11.046145,290.371094 11.290133,288.634552 
	C11.403352,287.468323 11.393816,286.607849 11.580131,285.579254 
	C11.867757,284.600708 11.959533,283.790253 12.159436,282.660583 
	C12.275579,281.460358 12.283595,280.579346 12.492834,279.488129 
	C12.832053,278.174103 12.970048,277.070282 13.238237,275.699768 
	C13.346050,274.858704 13.323667,274.284363 13.486443,273.533447 
	C13.797800,272.567810 13.923997,271.778717 14.150976,270.715027 
	C14.265352,269.861908 14.278948,269.283386 14.480989,268.531982 
	C14.796351,267.569305 14.923269,266.779510 15.150619,265.715149 
	C15.255383,264.863373 15.259717,264.286163 15.460960,263.537842 
	C15.808613,262.561493 15.959354,261.756317 16.223778,260.760742 
	C16.452713,260.286621 16.471657,259.996613 16.603481,259.395752 
	C17.830095,254.740250 18.847515,250.389389 20.028530,245.694000 
	C20.313129,244.600632 20.434134,243.851746 20.717075,242.888687 
	C20.969608,242.149399 21.060204,241.624283 21.120461,241.076050 
	C21.090118,241.052902 21.091841,241.129196 21.300114,240.924561 
	C21.627039,240.162384 21.745689,239.604813 22.005905,238.774048 
	C22.190531,238.095673 22.233591,237.690521 22.278734,237.269836 
	C22.280819,237.254318 22.270081,237.225708 22.455902,237.062622 
	C22.842522,236.613800 22.913452,236.298828 23.040302,235.654266 
	C25.340454,228.585968 27.454823,221.818024 29.569191,215.050064 
	C29.569191,215.050064 29.839199,214.905777 30.063866,214.511688 
	C30.715454,212.761490 31.142372,211.405380 31.569290,210.049286 
	C31.569290,210.049286 31.839458,209.905807 32.071777,209.517334 
	C33.403008,206.724686 34.501915,204.320526 35.838997,201.667786 
	C39.264847,194.635956 42.452522,187.852692 45.640198,181.069443 
	C45.774025,180.831284 45.907852,180.593124 46.179585,179.908463 
	C46.317490,179.461960 46.489815,179.080444 46.489815,179.080444 
	C46.489815,179.080444 46.833885,178.891266 47.148560,178.551117 
	C48.188744,176.830734 48.914257,175.450485 49.639771,174.070236 
	C49.775429,173.827530 49.911087,173.584839 50.327675,172.829102 
	C51.254406,171.249207 51.900200,170.182358 52.545998,169.115524 
	C52.698914,168.842621 52.851830,168.569733 53.342537,167.778198 
	C54.357872,166.169739 55.035416,165.079895 55.712959,163.990051 
	C55.712959,163.990051 55.922848,163.864990 56.159821,163.588242 
	C56.811474,162.563812 57.226158,161.816116 57.640846,161.068436 
	C57.771061,160.889969 57.901272,160.711502 58.295837,160.087036 
	C58.921524,159.116165 59.282864,158.591309 59.644196,158.066452 
	C59.773769,157.888168 59.903347,157.709900 60.348358,157.030548 
	C61.037075,156.012268 61.410358,155.495087 61.989243,154.826324 
	C62.699249,153.778000 63.203655,152.881271 63.708061,151.984528 
	C63.708061,151.984528 63.919266,151.864029 64.156952,151.578476 
	C64.832748,150.523468 65.270851,149.754013 65.708954,148.984558 
	C65.708946,148.984558 65.944740,148.829819 66.240112,148.575546 
	C67.259926,147.209091 67.984375,146.096909 68.708817,144.984726 
	C68.708817,144.984726 68.944641,144.829926 69.220306,144.585846 
	C69.983276,143.497681 70.470589,142.653595 70.957901,141.809509 
	C71.094116,141.672012 71.230347,141.534500 71.750763,141.193237 
	C72.300545,140.680695 72.466125,140.371918 72.631699,140.063126 
	C73.092583,139.514526 73.553467,138.965927 74.296188,137.970230 
	C74.954781,137.009964 75.331543,136.496780 75.708313,135.983612 
	C75.708313,135.983612 75.918915,135.866272 76.225395,135.609650 
	C81.335716,129.850037 86.139549,124.347054 90.943382,118.844070 
	C95.247292,114.528023 99.551201,110.211975 104.278351,105.582367 
	C105.078186,104.826118 105.454788,104.383423 105.831390,103.940720 
	C106.087509,103.703453 106.343636,103.466187 107.013474,102.940186 
	C107.823868,102.141174 108.220551,101.630882 108.617233,101.120590 
	C116.625900,94.762650 124.283676,87.886391 132.727005,82.170509 
	C144.836823,73.972527 157.351227,66.329666 170.015335,59.007473 
	C178.910263,53.864559 188.203064,49.340801 197.581146,45.125591 
	C204.381683,42.068924 211.512802,39.631721 218.672928,37.515144 
	C233.764206,33.054085 248.935867,28.850750 264.150452,24.828899 
	C269.337067,23.457865 274.751160,22.947449 280.808594,22.190296 
	C292.868835,21.383759 304.181793,20.430725 315.892883,19.593479 
	C317.850006,19.545252 319.408966,19.381243 320.967957,19.217234 
	C330.056335,19.129702 339.144745,19.042171 348.632446,19.085487 
z"/>
<path fill="#F085B5" opacity="1.000000" stroke="none" 
	d="
M366.243408,508.774811 
	C360.347900,509.817108 354.179565,511.246460 347.953552,511.571594 
	C297.259430,514.219177 252.029572,500.374512 214.163284,465.773529 
	C179.843231,434.413025 162.014221,394.817108 157.842346,348.865234 
	C154.204132,308.791534 161.088974,270.667786 181.674744,235.836426 
	C210.470276,187.114014 253.633087,159.363144 309.419891,150.983215 
	C327.003448,148.341919 344.618439,148.560211 362.212036,150.989120 
	C363.636810,151.185837 365.003021,151.807007 366.650208,152.486237 
	C362.119293,154.047913 357.273956,155.167938 352.562805,156.700500 
	C343.535095,159.637314 334.102356,161.860031 325.718536,166.114822 
	C314.430206,171.843643 303.556183,178.630753 293.264313,186.021896 
	C279.353607,196.011902 267.685150,208.442703 257.884338,222.586716 
	C250.185318,233.697540 243.089951,245.101486 238.677444,257.975800 
	C235.761871,266.482513 232.887756,275.003479 229.796432,284.161804 
	C228.389084,291.236603 227.180359,297.667572 225.971649,304.098572 
	C225.913284,321.452454 225.854919,338.806305 225.813660,356.975830 
	C227.202286,364.243256 228.573792,370.695007 229.945312,377.146759 
	C235.068939,390.955627 239.207581,405.236542 245.546661,418.462860 
	C255.093063,438.381195 269.425873,454.875336 286.103180,469.443237 
	C309.273346,489.682861 336.313049,501.727661 366.243408,508.774811 
z"/>
<path fill="#EF85B5" opacity="1.000000" stroke="none" 
	d="
M372.936951,640.894897 
	C385.536133,638.645996 398.254700,636.917786 410.714600,634.061218 
	C477.323090,618.790894 533.630615,585.921692 579.035400,534.666199 
	C583.164490,530.005127 588.777222,525.980835 587.089417,518.566162 
	C586.552612,516.208191 585.462830,513.466980 583.711487,511.973724 
	C566.990662,497.716370 550.068787,483.694885 533.223755,469.582764 
	C532.216125,468.738617 531.373230,467.697693 530.320923,466.458618 
	C538.236328,457.968597 546.253174,449.737000 554.351501,441.586395 
	C556.886597,439.034912 564.849426,439.300507 568.220276,442.107269 
	C588.982178,459.395203 609.691833,476.745819 630.422974,494.070648 
	C637.019104,499.582977 643.549011,505.178650 650.256165,510.552856 
	C655.458496,514.721313 656.573914,523.842041 652.131470,528.927795 
	C648.201233,533.427307 644.134583,537.807739 639.673218,542.627686 
	C634.839478,547.358887 630.460571,551.703003 626.081665,556.047119 
	C608.516174,573.335083 588.689026,587.737244 567.442078,599.983093 
	C554.411438,607.493286 540.702209,614.124268 526.669800,619.515808 
	C512.041870,625.136230 496.656372,628.782898 481.613770,633.331055 
	C480.527130,633.659668 479.535553,634.302673 477.861084,634.727722 
	C469.096100,636.081970 460.969818,637.507935 452.843536,638.933960 
	C451.805267,639.271057 450.766998,639.608215 449.096191,639.696777 
	C444.378815,639.661743 440.279266,639.724854 436.212219,640.121155 
	C428.717346,640.851685 421.241577,641.777954 413.757843,642.622620 
	C413.757843,642.622620 413.386139,642.726624 412.774567,642.766052 
	C404.407593,642.866760 396.652161,642.928101 388.896759,642.989380 
	C388.896759,642.989380 388.605011,642.727417 388.080841,642.474670 
	C382.683441,641.779602 377.810181,641.337219 372.936951,640.894897 
z"/>
<path fill="#EF85B5" opacity="1.000000" stroke="none" 
	d="
M530.034607,194.368362 
	C547.646545,179.608856 565.242188,164.829788 582.880432,150.101807 
	C588.175293,145.680649 589.173035,138.500671 584.729919,133.055847 
	C569.065125,113.859360 551.173035,96.962608 531.250549,82.255257 
	C486.782257,49.427505 437.081787,29.439392 382.356354,21.841860 
	C379.575958,21.455854 376.860870,20.599203 373.756897,19.868034 
	C394.194214,17.977139 414.976135,17.863127 436.407288,20.238358 
	C449.064880,22.109461 461.052277,24.031672 473.039642,25.953882 
	C494.500458,30.114325 515.275574,36.658287 535.213501,45.470581 
	C556.999390,55.099628 578.154114,66.048492 596.894104,81.046555 
	C606.543335,88.769012 616.092590,96.616234 625.910339,105.019836 
	C630.773010,110.063324 635.412415,114.494034 640.051819,118.924759 
	C644.283447,123.605064 648.630310,128.187576 652.712036,132.995178 
	C656.277710,137.195053 655.321350,146.422104 651.030212,149.955856 
	C637.579346,161.032791 623.980469,171.931137 610.596802,183.088074 
	C596.492004,194.846207 582.593750,206.851746 568.552429,218.686554 
	C563.976196,222.543655 556.683472,221.836151 552.624939,217.593216 
	C545.398621,210.038544 538.035767,202.614487 530.438660,194.820892 
	C530.147339,194.505981 530.034607,194.368362 530.034607,194.368362 
z"/>
<path fill="#FA008A" opacity="1.000000" stroke="none" 
	d="
M529.752563,194.144806 
	C530.034607,194.368362 530.147339,194.505981 530.201477,194.576691 
	C520.814758,202.537216 511.307098,210.349030 501.959839,218.348282 
	C496.934265,222.649078 488.769135,222.194092 484.382355,216.574600 
	C478.027130,210.345673 472.041016,204.615143 466.054901,198.884613 
	C466.054901,198.884613 466.038818,198.950821 466.112915,198.617859 
	C465.801514,198.160126 465.416016,198.035339 465.030518,197.910553 
	C465.030518,197.910553 465.020447,197.976334 465.056061,197.660385 
	C464.734741,197.200317 464.377777,197.056198 464.020844,196.912094 
	C464.020844,196.912094 464.016846,196.980347 464.035767,196.668304 
	C463.688873,196.223907 463.323029,196.091553 462.957184,195.959198 
	C462.957184,195.959198 462.983612,196.043350 462.878754,195.833893 
	C462.250519,195.327225 461.727173,195.029999 461.203827,194.732788 
	C452.122772,188.435623 443.602020,181.027359 433.830322,176.099869 
	C418.908112,168.575180 403.227203,162.495529 387.643372,156.375443 
	C382.384308,154.310120 376.441071,153.986923 370.411621,152.795609 
	C377.627655,151.518997 385.209167,149.608307 392.863983,149.245682 
	C413.532928,148.266525 433.977753,150.220016 454.060577,155.547623 
	C481.958801,162.948502 506.927460,176.033417 529.752563,194.144806 
z"/>
<path fill="#FB008A" opacity="1.000000" stroke="none" 
	d="
M528.769470,465.880188 
	C523.610657,470.518616 518.634766,475.417938 512.929077,479.223053 
	C489.483887,494.858795 463.741364,504.963562 435.916840,509.426697 
	C416.122284,512.601807 396.219696,513.345947 376.317047,510.090515 
	C375.354279,509.933044 374.436951,509.498077 373.190430,508.940918 
	C383.279419,505.707031 393.902039,503.330475 404.008392,499.567474 
	C413.649231,495.977783 423.190674,491.669617 431.981964,486.362305 
	C443.355560,479.496094 453.941681,471.325500 465.338684,463.362946 
	C469.256714,459.702545 472.702850,456.395721 476.148987,453.088867 
	C476.148987,453.088898 476.088867,453.029938 476.374329,453.066956 
	C476.803345,452.746094 476.946930,452.388275 477.090515,452.030426 
	C477.090515,452.030426 477.030304,452.088257 477.404510,452.104706 
	C479.828247,449.714447 481.877747,447.307709 483.927246,444.901001 
	C483.927246,444.900970 483.938049,444.925751 484.104126,444.790100 
	C484.578735,444.213898 484.887268,443.773346 485.195801,443.332794 
	C490.415070,438.477814 496.202423,438.402283 502.951447,443.843048 
	C510.585236,449.997131 517.861450,456.594757 525.621582,463.343018 
	C526.303711,463.821381 526.657532,463.956207 527.011292,464.091003 
	C527.546509,464.606659 528.081665,465.122314 528.769470,465.880188 
z"/>
<path fill="#530E32" opacity="1.000000" stroke="none" 
	d="
M15.883413,399.037781 
	C18.960417,409.887177 21.779722,420.818634 25.199154,431.559021 
	C27.754200,439.584351 31.083759,447.363129 33.875862,455.434570 
	C32.785667,454.424530 31.888050,453.231659 30.990437,452.038757 
	C30.990440,452.038757 30.954720,452.033264 30.961388,451.703125 
	C30.711538,450.599670 30.455023,449.826355 30.198503,449.053040 
	C29.879225,448.582764 29.559948,448.112488 29.107061,447.068726 
	C28.694437,445.711884 28.415422,444.928528 28.136410,444.145142 
	C25.716858,437.771484 22.939283,431.506256 20.967499,424.996948 
	C18.448606,416.681580 16.579977,408.169250 14.584285,399.381775 
	C15.119454,399.027130 15.501432,399.032440 15.883413,399.037781 
z"/>
<path fill="#4D0E2F" opacity="1.000000" stroke="none" 
	d="
M210.928436,622.026245 
	C214.073212,622.794678 217.513855,623.496826 220.865082,624.498230 
	C230.831299,627.476074 240.762329,630.571655 250.867828,633.791260 
	C237.746841,630.006409 224.465134,626.051575 210.928436,622.026245 
z"/>
<path fill="#431D2F" opacity="1.000000" stroke="none" 
	d="
M472.959564,25.586344 
	C461.052277,24.031672 449.064880,22.109461 436.947021,20.284611 
	C447.264648,21.248447 457.720581,22.036245 468.152924,23.063269 
	C469.783386,23.223783 471.306641,24.473007 472.959564,25.586344 
z"/>
<path fill="#AA5E81" opacity="1.000000" stroke="none" 
	d="
M414.235352,642.734192 
	C421.241577,641.777954 428.717346,640.851685 436.212219,640.121155 
	C440.279266,639.724854 444.378815,639.661743 448.761353,639.711914 
	C445.706635,640.643738 442.378448,641.687195 438.997070,641.905029 
	C430.915680,642.425598 422.809235,642.557129 414.235352,642.734192 
z"/>
<path fill="#530E32" opacity="1.000000" stroke="none" 
	d="
M11.092617,372.509796 
	C11.441362,374.656708 11.790108,376.803589 11.918384,379.086761 
	C10.465055,372.492676 9.109667,365.781372 8.058939,359.022705 
	C7.631618,356.274048 7.866459,353.422455 7.878897,349.907501 
	C8.208944,347.828339 8.460114,346.459320 8.711285,345.090332 
	C8.892319,346.292084 9.073351,347.493835 9.163322,349.316589 
	C9.084304,350.450806 9.096346,350.964050 9.108387,351.477295 
	C9.311622,351.663635 9.373931,351.888947 9.226322,352.536987 
	C9.224297,353.239014 9.325497,353.545990 9.460928,353.841705 
	C9.719283,356.433105 9.977639,359.024536 10.152063,362.345520 
	C10.071692,363.904449 10.075251,364.733795 10.078810,365.563141 
	C10.461087,367.285370 10.843366,369.007599 11.160250,371.248138 
	C11.088959,372.014221 11.088213,372.262024 11.092617,372.509796 
z"/>
<path fill="#220C17" opacity="1.000000" stroke="none" 
	d="
M8.750839,344.617676 
	C8.460114,346.459320 8.208944,347.828339 7.943088,349.555145 
	C7.620868,349.009155 7.049889,348.106567 7.045656,347.201355 
	C6.989755,335.246124 7.004412,323.290466 7.044082,311.335083 
	C7.046111,310.723633 7.434246,310.113464 7.933232,309.845306 
	C8.197312,310.467926 8.170774,310.747955 8.100515,311.485535 
	C8.222661,316.260773 8.388527,320.578461 8.554394,324.896149 
	C8.633060,331.312439 8.711728,337.728760 8.750839,344.617676 
z"/>
<path fill="#5A0F37" opacity="1.000000" stroke="none" 
	d="
M315.494781,19.477692 
	C304.181793,20.430725 292.868835,21.383759 281.224182,22.152390 
	C292.135498,20.966507 303.378540,19.965027 315.060974,19.108124 
	C315.500366,19.252699 315.494781,19.477692 315.494781,19.477692 
z"/>
<path fill="#4F0C2F" opacity="1.000000" stroke="none" 
	d="
M45.386909,181.251892 
	C42.452522,187.852692 39.264847,194.635956 35.594635,201.673279 
	C34.786140,201.938202 34.460091,201.942764 34.133953,201.941010 
	C37.800507,195.105453 41.467060,188.269882 45.386909,181.251892 
z"/>
<path fill="#44112B" opacity="1.000000" stroke="none" 
	d="
M466.160950,199.206268 
	C472.041016,204.615143 478.027130,210.345673 484.042816,216.319824 
	C478.137238,210.884949 472.202118,205.206436 466.160950,199.206268 
z"/>
<path fill="#4D0F2F" opacity="1.000000" stroke="none" 
	d="
M90.604820,118.927490 
	C86.139549,124.347054 81.335716,129.850037 76.257942,135.493591 
	C80.744759,130.093063 85.505508,124.551994 90.604820,118.927490 
z"/>
<path fill="#451F31" opacity="1.000000" stroke="none" 
	d="
M453.122375,639.223633 
	C460.969818,637.507935 469.096100,636.081970 477.513611,634.775146 
	C469.670319,636.433960 461.535767,637.973633 453.122375,639.223633 
z"/>
<path fill="#530F32" opacity="1.000000" stroke="none" 
	d="
M29.370220,215.303619 
	C27.454823,221.818024 25.340454,228.585968 22.837772,235.668945 
	C22.449457,235.983978 22.045406,236.025192 22.028055,235.683014 
	C21.969761,234.886536 21.928816,234.432236 21.887873,233.977921 
	C24.315666,227.837677 26.743458,221.697418 29.370220,215.303619 
z"/>
<path fill="#3F1C2D" opacity="1.000000" stroke="none" 
	d="
M230.230774,376.879425 
	C228.573792,370.695007 227.202286,364.243256 225.904968,357.348328 
	C226.640625,357.521179 227.772675,358.059387 227.889450,358.765472 
	C228.870468,364.696899 229.665344,370.659149 230.230774,376.879425 
z"/>
<path fill="#431E2F" opacity="1.000000" stroke="none" 
	d="
M226.348343,303.996704 
	C227.180359,297.667572 228.389084,291.236603 229.759369,284.615936 
	C229.521042,289.159668 229.260025,293.911011 228.651031,298.617340 
	C228.416565,300.429260 227.390442,302.138702 226.348343,303.996704 
z"/>
<path fill="#C8008C" opacity="1.000000" stroke="none" 
	d="
M323.407928,643.597778 
	C324.904297,642.928589 326.832886,642.032471 328.785797,641.975830 
	C333.229645,641.846985 337.685455,642.130188 342.474823,642.449707 
	C339.911804,643.061951 337.021088,643.671143 334.106140,643.826660 
	C330.698822,644.008362 327.270416,643.794373 323.407928,643.597778 
z"/>
<path fill="#550C32" opacity="1.000000" stroke="none" 
	d="
M92.119843,544.029663 
	C96.106117,547.589417 100.077347,551.453796 104.092972,555.600586 
	C100.126518,552.033386 96.115662,548.183838 92.119843,544.029663 
z"/>
<path fill="#411C2D" opacity="1.000000" stroke="none" 
	d="
M640.024780,118.564163 
	C635.412415,114.494034 630.773010,110.063324 626.104370,105.290482 
	C632.713013,107.269272 636.774597,112.296112 640.024780,118.564163 
z"/>
<path fill="#3E1A2B" opacity="1.000000" stroke="none" 
	d="
M626.441650,556.019104 
	C630.460571,551.703003 634.839478,547.358887 639.544495,542.936218 
	C635.514282,547.235474 631.157959,551.613281 626.441650,556.019104 
z"/>
<path fill="#530E32" opacity="1.000000" stroke="none" 
	d="
M11.389196,380.683472 
	C12.903683,385.903656 14.267188,391.576782 15.374544,397.615295 
	C14.794307,397.986053 14.470201,397.989929 14.146078,397.992401 
	C13.176790,392.373718 12.207503,386.755066 11.389196,380.683472 
z"/>
<path fill="#530E32" opacity="1.000000" stroke="none" 
	d="
M34.360153,456.421875 
	C36.458786,460.914551 38.557423,465.407227 40.579826,470.286194 
	C38.348480,466.717651 36.193363,462.762787 34.103783,458.024414 
	C34.232933,456.967865 34.296547,456.694855 34.360153,456.421875 
z"/>
<path fill="#AA5E81" opacity="1.000000" stroke="none" 
	d="
M372.699951,640.886719 
	C377.810181,641.337219 382.683441,641.779602 387.891602,642.423401 
	C382.674194,642.437134 377.121826,642.249390 371.349915,641.682129 
	C371.574585,641.161316 372.018768,641.020020 372.699951,640.886719 
z"/>
<path fill="#4D0E2F" opacity="1.000000" stroke="none" 
	d="
M475.795105,453.111938 
	C472.702850,456.395721 469.256714,459.702545 465.465515,463.044250 
	C468.560730,459.764465 472.000977,456.449738 475.795105,453.111938 
z"/>
<path fill="#590C35" opacity="1.000000" stroke="none" 
	d="
M19.864933,246.038513 
	C18.847515,250.389389 17.830095,254.740250 16.514256,258.932800 
	C16.134066,258.153229 16.052294,257.531952 15.970524,256.910706 
	C16.448704,254.407608 16.926886,251.904495 17.871778,248.939911 
	C18.847305,247.665115 19.356119,246.851822 19.864933,246.038513 
z"/>
<path fill="#530E32" opacity="1.000000" stroke="none" 
	d="
M59.199341,501.825348 
	C61.823872,505.756683 64.448402,509.687988 67.050766,513.935852 
	C64.439240,511.068298 61.849892,507.884186 59.112694,504.064758 
	C58.938732,502.978973 58.912628,502.528503 58.964783,502.014954 
	C59.043037,501.951843 59.199341,501.825348 59.199341,501.825348 
z"/>
<path fill="#1F0C14" opacity="1.000000" stroke="none" 
	d="
M389.173706,643.280945 
	C396.652161,642.928101 404.407593,642.866760 412.633240,642.897461 
	C405.219208,643.183777 397.334930,643.378174 389.173706,643.280945 
z"/>
<path fill="#C8008C" opacity="1.000000" stroke="none" 
	d="
M305.402679,642.598816 
	C308.864014,642.287415 312.762848,642.130188 316.864777,642.280640 
	C313.325287,642.643250 309.582764,642.698181 305.402679,642.598816 
z"/>
<path fill="#530E32" opacity="1.000000" stroke="none" 
	d="
M48.158703,483.860809 
	C50.067055,487.011536 51.975410,490.162292 53.708900,493.541016 
	C52.984978,493.547119 52.435925,493.325256 51.886871,493.103394 
	C50.609859,490.978363 49.332848,488.853363 48.003597,486.057251 
	C47.938538,484.943237 47.925716,484.500305 47.974403,484.008301 
	C48.035912,483.959259 48.158707,483.860809 48.158703,483.860809 
z"/>
<path fill="#510E31" opacity="1.000000" stroke="none" 
	d="
M10.370990,293.703033 
	C10.389645,294.884399 10.408299,296.065796 10.057272,297.933350 
	C9.568067,300.639282 9.448544,302.659058 9.329021,304.678833 
	C9.399924,305.238403 9.470829,305.797974 9.015480,306.640869 
	C8.235296,306.939606 7.981367,306.955048 7.727437,306.970459 
	C8.295565,301.821228 8.863693,296.672028 9.760960,291.709106 
	C10.183729,292.497955 10.277360,293.100494 10.370990,293.703033 
z"/>
<path fill="#4D0E2F" opacity="1.000000" stroke="none" 
	d="
M483.588654,444.970520 
	C481.877747,447.307709 479.828247,449.714447 477.433716,452.134552 
	C479.142487,449.778656 481.196259,447.409332 483.588654,444.970520 
z"/>
<path fill="#530E32" opacity="1.000000" stroke="none" 
	d="
M43.294601,476.589630 
	C44.911739,478.514618 46.467026,480.835541 48.090511,483.508667 
	C48.158707,483.860809 48.035912,483.959259 47.761406,483.876709 
	C47.054176,483.542908 46.621452,483.291687 46.188725,483.040466 
	C45.203396,481.022186 44.218075,479.003876 43.294601,476.589630 
z"/>
<path fill="#510E31" opacity="1.000000" stroke="none" 
	d="
M12.291611,279.698364 
	C12.283595,280.579346 12.275579,281.460358 11.965468,282.969116 
	C11.570341,284.313721 11.477310,285.030518 11.384279,285.747345 
	C11.393816,286.607849 11.403352,287.468323 11.075689,288.789673 
	C10.495790,289.505737 10.253092,289.760925 10.010391,290.016144 
	C10.486667,285.843872 10.962944,281.671600 11.757513,277.695251 
	C12.147738,278.493591 12.219675,279.095978 12.291611,279.698364 
z"/>
<path fill="#530F32" opacity="1.000000" stroke="none" 
	d="
M34.068199,202.315704 
	C34.460091,201.942764 34.786140,201.938202 35.356461,201.921844 
	C34.501915,204.320526 33.403008,206.724686 32.139587,209.380219 
	C32.650864,207.317871 33.326656,205.004150 34.068199,202.315704 
z"/>
<path fill="#530E32" opacity="1.000000" stroke="none" 
	d="
M54.374664,495.959503 
	C55.927769,497.461792 57.453243,499.316132 59.089027,501.497894 
	C59.199341,501.825348 59.043037,501.951843 58.729324,501.864685 
	C57.905872,501.552612 57.396137,501.327759 56.886406,501.102905 
	C56.039955,499.505768 55.193497,497.908661 54.374664,495.959503 
z"/>
<path fill="#C8008C" opacity="1.000000" stroke="none" 
	d="
M295.367798,641.597046 
	C296.882446,641.297485 298.811493,641.155457 300.906921,641.299927 
	C299.309631,641.642517 297.545898,641.698547 295.367798,641.597046 
z"/>
<path fill="#510E31" opacity="1.000000" stroke="none" 
	d="
M15.698229,257.176056 
	C16.052294,257.531952 16.134066,258.153229 16.305061,259.237427 
	C16.471657,259.996613 16.452713,260.286621 16.015409,261.064056 
	C15.550259,262.274872 15.407155,262.991913 15.264050,263.708984 
	C15.259717,264.286163 15.255383,264.863373 14.915677,265.738098 
	C14.580304,266.035645 14.112928,266.102478 14.078992,266.073181 
	C14.045055,266.043884 13.976377,265.986206 13.976377,265.986206 
	C14.459563,263.137939 14.942749,260.289673 15.698229,257.176056 
z"/>
<path fill="#4F0C2F" opacity="1.000000" stroke="none" 
	d="
M49.400574,174.242828 
	C48.914257,175.450485 48.188744,176.830734 47.244461,178.379822 
	C47.737591,177.170898 48.449482,175.793167 49.400574,174.242828 
z"/>
<path fill="#AA5E81" opacity="1.000000" stroke="none" 
	d="
M363.323914,641.972656 
	C364.335144,641.723999 365.565247,641.507385 366.831909,641.401001 
	C365.759918,641.675781 364.651337,641.840210 363.323914,641.972656 
z"/>
<path fill="#530F32" opacity="1.000000" stroke="none" 
	d="
M20.028530,245.694000 
	C19.356119,246.851822 18.847305,247.665115 18.133415,248.673325 
	C18.223959,247.144150 18.519583,245.420090 19.334801,243.379913 
	C20.087975,243.076828 20.321556,243.089859 20.555136,243.102875 
	C20.434134,243.851746 20.313129,244.600632 20.028530,245.694000 
z"/>
<path fill="#440E2A" opacity="1.000000" stroke="none" 
	d="
M34.363869,456.302277 
	C34.296547,456.694855 34.232933,456.967865 34.085396,457.653168 
	C32.999134,456.296783 31.996799,454.528046 30.992449,452.399048 
	C31.888050,453.231659 32.785667,454.424530 33.934357,455.822449 
	C34.185436,456.027466 34.367580,456.182678 34.363869,456.302277 
z"/>
<path fill="#590C35" opacity="1.000000" stroke="none" 
	d="
M10.018545,290.258911 
	C10.253092,289.760925 10.495790,289.505737 10.952932,289.095398 
	C11.046145,290.371094 10.924914,291.801910 10.587337,293.467896 
	C10.277360,293.100494 10.183729,292.497955 10.047061,291.441162 
	C10.004025,290.986938 10.026697,290.501648 10.018545,290.258911 
z"/>
<path fill="#4F0C2F" opacity="1.000000" stroke="none" 
	d="
M55.481659,164.152069 
	C55.035416,165.079895 54.357872,166.169739 53.425587,167.316391 
	C53.864014,166.353485 54.557186,165.333771 55.481659,164.152069 
z"/>
<path fill="#530F32" opacity="1.000000" stroke="none" 
	d="
M31.377827,210.284363 
	C31.142372,211.405380 30.715454,212.761490 30.131264,214.374237 
	C30.378119,213.260422 30.782242,211.889923 31.377827,210.284363 
z"/>
<path fill="#4D0F2F" opacity="1.000000" stroke="none" 
	d="
M68.475052,145.152557 
	C67.984375,146.096909 67.259926,147.209091 66.283829,148.441467 
	C66.768547,147.481247 67.504921,146.400803 68.475052,145.152557 
z"/>
<path fill="#530E32" opacity="1.000000" stroke="none" 
	d="
M71.997719,520.588867 
	C72.833214,521.347351 73.711426,522.402527 74.675011,523.748413 
	C73.853737,522.987976 72.947083,521.936768 71.997719,520.588867 
z"/>
<path fill="#590C35" opacity="1.000000" stroke="none" 
	d="
M12.492834,279.488129 
	C12.219675,279.095978 12.147738,278.493591 12.041942,277.438660 
	C12.048382,276.822113 12.088684,276.658112 12.407314,276.237732 
	C12.685643,275.981323 13.108040,275.966492 13.108041,275.966492 
	C12.970048,277.070282 12.832053,278.174103 12.492834,279.488129 
z"/>
<path fill="#4F0C2F" opacity="1.000000" stroke="none" 
	d="
M52.329506,169.281647 
	C51.900200,170.182358 51.254406,171.249207 50.378578,172.415192 
	C50.803368,171.492126 51.458195,170.469940 52.329506,169.281647 
z"/>
<path fill="#510E31" opacity="1.000000" stroke="none" 
	d="
M13.238237,275.699768 
	C13.108040,275.966492 12.685643,275.981323 12.475288,275.993713 
	C12.317876,274.423553 12.370818,272.841064 12.733608,271.148193 
	C13.043455,271.037842 13.120259,271.108856 13.125243,271.542480 
	C13.187246,272.554047 13.244265,273.132050 13.301284,273.710022 
	C13.323667,274.284363 13.346050,274.858704 13.238237,275.699768 
z"/>
<path fill="#530F32" opacity="1.000000" stroke="none" 
	d="
M22.276649,237.285355 
	C22.233591,237.690521 22.190531,238.095673 21.839203,239.002136 
	C21.384569,240.045349 21.238203,240.587280 21.091839,241.129196 
	C21.091841,241.129196 21.090118,241.052902 20.845482,241.051422 
	C20.417444,241.036301 20.234045,241.022629 20.050644,241.008972 
	C20.194971,239.833069 20.339296,238.657150 21.051403,237.299957 
	C21.838337,237.174255 22.057491,237.229813 22.276649,237.285355 
z"/>
<path fill="#4D0F2F" opacity="1.000000" stroke="none" 
	d="
M70.760330,141.959900 
	C70.470589,142.653595 69.983276,143.497681 69.264030,144.451752 
	C69.542305,143.744568 70.052528,142.927429 70.760330,141.959900 
z"/>
<path fill="#530E32" opacity="1.000000" stroke="none" 
	d="
M80.076317,530.500366 
	C80.422295,530.915344 80.854652,531.494446 81.153122,532.139343 
	C80.733727,531.691589 80.448212,531.177979 80.076317,530.500366 
z"/>
<path fill="#550C32" opacity="1.000000" stroke="none" 
	d="
M109.311737,560.773987 
	C109.947311,561.182129 110.717690,561.768799 111.524933,562.625977 
	C110.856705,562.248474 110.151619,561.600464 109.311737,560.773987 
z"/>
<path fill="#4D0F2F" opacity="1.000000" stroke="none" 
	d="
M65.482773,149.144302 
	C65.270851,149.754013 64.832748,150.523468 64.188370,151.461029 
	C64.406921,150.854095 64.831749,150.079071 65.482773,149.144302 
z"/>
<path fill="#C8008C" opacity="1.000000" stroke="none" 
	d="
M315.892883,19.593477 
	C315.494781,19.477692 315.500366,19.252699 315.496796,19.140255 
	C317.023651,19.039314 318.554077,19.050817 320.526245,19.139776 
	C319.408966,19.381243 317.850006,19.545252 315.892883,19.593477 
z"/>
<path fill="#4D0F2F" opacity="1.000000" stroke="none" 
	d="
M63.466728,152.161896 
	C63.203655,152.881271 62.699249,153.778000 61.983902,154.812973 
	C61.772957,154.951202 61.750923,154.925522 61.750923,154.925522 
	C62.242413,154.063431 62.733906,153.201340 63.466728,152.161896 
z"/>
<path fill="#510E31" opacity="1.000000" stroke="none" 
	d="
M14.292543,268.704895 
	C14.278948,269.283386 14.265352,269.861908 13.917765,270.739136 
	C13.583772,271.037872 13.120259,271.108856 13.120259,271.108856 
	C13.120259,271.108856 13.043455,271.037842 13.005084,271.002106 
	C13.124385,269.478729 13.282057,267.991089 13.708053,266.244812 
	C13.976377,265.986206 14.045055,266.043884 14.083828,266.506531 
	C14.179248,267.547760 14.235896,268.126312 14.292543,268.704895 
z"/>
<path fill="#4F0C2F" opacity="1.000000" stroke="none" 
	d="
M57.420845,161.218857 
	C57.226158,161.816116 56.811474,162.563812 56.192944,163.470642 
	C56.393013,162.876297 56.796932,162.122787 57.420845,161.218857 
z"/>
<path fill="#530E32" opacity="1.000000" stroke="none" 
	d="
M68.979996,516.519775 
	C69.342529,516.780884 69.728333,517.270813 70.064377,517.996216 
	C69.677498,517.737305 69.340378,517.242981 68.979996,516.519775 
z"/>
<path fill="#590C35" opacity="1.000000" stroke="none" 
	d="
M19.819572,241.189224 
	C20.234045,241.022629 20.417444,241.036301 20.875824,241.074570 
	C21.060204,241.624283 20.969608,242.149399 20.717075,242.888687 
	C20.321556,243.089859 20.087975,243.076828 19.504635,243.039810 
	C19.299416,242.467026 19.443956,241.918259 19.819572,241.189224 
z"/>
<path fill="#480D2C" opacity="1.000000" stroke="none" 
	d="
M56.948868,501.412109 
	C57.396137,501.327759 57.905872,501.552612 58.651066,501.927795 
	C58.912628,502.528503 58.938732,502.978973 58.952370,503.768433 
	C58.297047,503.312073 57.654190,502.516693 56.948868,501.412109 
z"/>
<path fill="#480D2C" opacity="1.000000" stroke="none" 
	d="
M51.959175,493.436035 
	C52.435925,493.325256 52.984978,493.547119 53.807365,493.885651 
	C54.285526,494.357422 54.490353,494.712524 54.617413,495.365540 
	C53.703587,495.031830 52.867531,494.400238 51.959175,493.436035 
z"/>
<path fill="#4F0E30" opacity="1.000000" stroke="none" 
	d="
M46.161419,483.352783 
	C46.621452,483.291687 47.054176,483.542908 47.699898,483.925751 
	C47.925716,484.500305 47.938538,484.943237 47.937862,485.718109 
	C47.327614,485.255066 46.730862,484.460114 46.161419,483.352783 
z"/>
<path fill="#440E2A" opacity="1.000000" stroke="none" 
	d="
M30.057014,449.289551 
	C30.455023,449.826355 30.711538,450.599670 30.962025,451.685059 
	C30.609173,451.173462 30.262348,450.349792 30.057014,449.289551 
z"/>
<path fill="#550C32" opacity="1.000000" stroke="none" 
	d="
M106.576912,558.072021 
	C106.790581,558.164307 107.082550,558.348938 107.398666,558.687134 
	C107.166939,558.615234 106.911072,558.389771 106.576912,558.072021 
z"/>
<path fill="#4F0C2F" opacity="1.000000" stroke="none" 
	d="
M61.537197,155.080292 
	C61.750923,154.925522 61.772957,154.951202 61.778297,154.964554 
	C61.410358,155.495087 61.037075,156.012268 60.393162,156.703033 
	C60.522846,156.329422 60.923161,155.782242 61.537197,155.080292 
z"/>
<path fill="#FB008A" opacity="1.000000" stroke="none" 
	d="
M371.623779,508.867249 
	C371.198242,509.071411 370.422546,509.242920 369.422852,509.292175 
	C369.890472,509.058136 370.582062,508.946350 371.623779,508.867249 
z"/>
<path fill="#4D0F2F" opacity="1.000000" stroke="none" 
	d="
M75.506836,136.115524 
	C75.331543,136.496780 74.954781,137.009964 74.347740,137.613190 
	C74.513428,137.217987 74.909393,136.732712 75.506836,136.115524 
z"/>
<path fill="#4D0E2F" opacity="1.000000" stroke="none" 
	d="
M485.057007,443.469818 
	C484.887268,443.773346 484.578735,444.213898 484.094299,444.799347 
	C484.251648,444.498474 484.584930,444.052643 485.057007,443.469818 
z"/>
<path fill="#440E2A" opacity="1.000000" stroke="none" 
	d="
M28.096748,444.470764 
	C28.415422,444.928528 28.694437,445.711884 28.967991,446.819824 
	C28.660715,446.361694 28.358902,445.579010 28.096748,444.470764 
z"/>
<path fill="#4F0C2F" opacity="1.000000" stroke="none" 
	d="
M59.439140,158.198334 
	C59.282864,158.591309 58.921524,159.116165 58.340824,159.758728 
	C58.492336,159.361023 58.863205,158.845627 59.439140,158.198334 
z"/>
<path fill="#44112B" opacity="1.000000" stroke="none" 
	d="
M461.375305,194.868088 
	C461.727173,195.029999 462.250519,195.327225 462.920990,195.821198 
	C462.560974,195.679764 462.053894,195.341568 461.375305,194.868088 
z"/>
<path fill="#550C32" opacity="1.000000" stroke="none" 
	d="
M87.257950,538.719788 
	C87.543556,538.857788 87.920708,539.134399 88.314606,539.594482 
	C88.004051,539.471436 87.676773,539.164856 87.257950,538.719788 
z"/>
<path fill="#510E31" opacity="1.000000" stroke="none" 
	d="
M22.278732,237.269836 
	C22.057491,237.229813 21.838337,237.174255 21.290323,237.035828 
	C21.113058,236.107758 21.264650,235.262573 21.652058,234.197647 
	C21.928816,234.432236 21.969761,234.886536 22.072657,235.985138 
	C22.179766,236.828186 22.224924,237.026947 22.270081,237.225708 
	C22.270081,237.225708 22.280819,237.254318 22.278732,237.269836 
z"/>
<path fill="#4D0F2F" opacity="1.000000" stroke="none" 
	d="
M108.414490,101.243958 
	C108.220551,101.630882 107.823868,102.141174 107.184189,102.741386 
	C107.364708,102.343315 107.788231,101.855324 108.414490,101.243958 
z"/>
<path fill="#4D0F2F" opacity="1.000000" stroke="none" 
	d="
M105.639801,104.042572 
	C105.454788,104.383423 105.078186,104.826118 104.486809,105.267677 
	C104.664101,104.892502 105.056152,104.518456 105.639801,104.042572 
z"/>
<path fill="#4D0F2F" opacity="1.000000" stroke="none" 
	d="
M72.493240,140.140930 
	C72.466125,140.371918 72.300545,140.680695 71.954712,140.986572 
	C71.922356,140.693207 72.115799,140.438217 72.493240,140.140930 
z"/>
<path fill="#550C32" opacity="1.000000" stroke="none" 
	d="
M84.819901,536.115723 
	C85.031036,536.163269 85.330399,536.372314 85.672928,536.779419 
	C85.446777,536.744080 85.177452,536.510620 84.819901,536.115723 
z"/>
<path fill="#550C32" opacity="1.000000" stroke="none" 
	d="
M83.181870,534.580566 
	C83.427170,534.594360 83.750069,534.748169 84.060822,535.088135 
	C83.749199,535.140808 83.486130,534.956299 83.181870,534.580566 
z"/>
<path fill="#530E32" opacity="1.000000" stroke="none" 
	d="
M78.829765,529.130859 
	C79.046478,529.185913 79.355804,529.407898 79.712006,529.833374 
	C79.480042,529.790466 79.201210,529.544128 78.829765,529.130859 
z"/>
<path fill="#530E32" opacity="1.000000" stroke="none" 
	d="
M77.156784,527.389160 
	C77.425377,527.433899 77.740463,527.651611 78.045303,528.065796 
	C77.757790,528.028809 77.480530,527.795471 77.156784,527.389160 
z"/>
<path fill="#530E32" opacity="1.000000" stroke="none" 
	d="
M70.829758,519.130859 
	C71.046455,519.185974 71.355782,519.407898 71.711990,519.833374 
	C71.480049,519.790466 71.201218,519.544128 70.829758,519.130859 
z"/>
<path fill="#530E32" opacity="1.000000" stroke="none" 
	d="
M67.829758,515.130859 
	C68.046432,515.185974 68.355721,515.407959 68.711937,515.833374 
	C68.480042,515.790466 68.201210,515.544128 67.829758,515.130859 
z"/>
<path fill="#530E32" opacity="1.000000" stroke="none" 
	d="
M40.310566,471.125671 
	C40.823586,471.252197 41.300724,471.734741 41.691021,472.581421 
	C41.161015,472.457642 40.717850,471.969666 40.310566,471.125671 
z"/>
<path fill="#590C35" opacity="1.000000" stroke="none" 
	d="
M14.115115,398.250549 
	C14.470201,397.989929 14.794307,397.986053 15.361461,397.981049 
	C15.691716,398.146698 15.778907,398.312042 15.874753,398.757568 
	C15.501432,399.032440 15.119454,399.027130 14.452565,399.021912 
	C14.139820,398.850922 14.111986,398.679840 14.115115,398.250549 
z"/>
<path fill="#C8008C" opacity="1.000000" stroke="none" 
	d="
M526.918274,463.847168 
	C526.657532,463.956207 526.303711,463.821381 525.923645,463.507507 
	C526.206665,463.420105 526.515930,463.511749 526.918274,463.847168 
z"/>
<path fill="#530E32" opacity="1.000000" stroke="none" 
	d="
M11.542211,379.513794 
	C11.745954,379.588745 11.949417,379.922272 11.831324,380.079010 
	C11.487160,380.070160 11.261088,379.904541 11.035015,379.738953 
	C11.136165,379.638916 11.237316,379.538879 11.542211,379.513794 
z"/>
<path fill="#530E32" opacity="1.000000" stroke="none" 
	d="
M75.017532,524.415283 
	C74.980164,524.319336 75.329048,524.569519 75.333237,524.678650 
	C75.337418,524.787781 75.054901,524.511292 75.017532,524.415283 
z"/>
<path fill="#4F0C2F" opacity="1.000000" stroke="none" 
	d="
M46.412922,179.146225 
	C46.489815,179.080444 46.317490,179.461960 46.222023,179.500885 
	C46.126560,179.539810 46.336029,179.212006 46.412922,179.146225 
z"/>
<path fill="#4D0E2F" opacity="1.000000" stroke="none" 
	d="
M476.856171,452.142548 
	C476.946930,452.388275 476.803345,452.746094 476.345123,453.097260 
	C476.227570,452.811920 476.424683,452.533295 476.856171,452.142548 
z"/>
<path fill="#510E31" opacity="1.000000" stroke="none" 
	d="
M8.144236,311.028015 
	C8.170774,310.747955 8.197312,310.467926 8.284243,309.766022 
	C8.344635,309.344147 8.695918,309.345825 8.857748,309.414246 
	C9.093583,309.725067 9.167588,309.967438 8.948009,310.600769 
	C8.484362,311.003815 8.314299,311.015900 8.144236,311.028015 
z"/>
<path fill="#44112B" opacity="1.000000" stroke="none" 
	d="
M463.091339,196.183273 
	C463.323029,196.091553 463.688873,196.223907 464.069946,196.666489 
	C463.798584,196.786926 463.512054,196.597137 463.091339,196.183273 
z"/>
<path fill="#220C17" opacity="1.000000" stroke="none" 
	d="
M7.929695,307.238159 
	C7.981367,306.955048 8.235296,306.939606 8.869885,306.893616 
	C9.242988,307.149506 9.235431,307.435974 9.095451,308.131470 
	C8.686004,308.195618 8.408978,307.850739 7.929695,307.238159 
z"/>
<path fill="#44112B" opacity="1.000000" stroke="none" 
	d="
M464.135254,197.145676 
	C464.377777,197.056198 464.734741,197.200317 465.089233,197.657883 
	C464.807739,197.773972 464.528687,197.576614 464.135254,197.145676 
z"/>
<path fill="#44112B" opacity="1.000000" stroke="none" 
	d="
M465.127441,198.157166 
	C465.416016,198.035339 465.801514,198.160126 466.146790,198.614090 
	C465.812500,198.763443 465.518433,198.583618 465.127441,198.157166 
z"/>
<path fill="#530E32" opacity="1.000000" stroke="none" 
	d="
M42.197182,474.820312 
	C42.509483,474.807251 42.934566,475.171814 43.319572,475.985199 
	C42.956314,476.021973 42.633137,475.609955 42.197182,474.820312 
z"/>
<path fill="#590C35" opacity="1.000000" stroke="none" 
	d="
M8.100515,311.485535 
	C8.314299,311.015900 8.484362,311.003815 8.909886,310.979004 
	C9.092264,315.381561 9.019181,319.796814 8.750246,324.554138 
	C8.388527,320.578461 8.222661,316.260773 8.100515,311.485535 
z"/>
<path fill="#590C35" opacity="1.000000" stroke="none" 
	d="
M9.564112,304.415344 
	C9.448544,302.659058 9.568067,300.639282 9.927639,298.269836 
	C10.044859,299.997375 9.922030,302.074585 9.564112,304.415344 
z"/>
<path fill="#590C35" opacity="1.000000" stroke="none" 
	d="
M13.125243,271.542480 
	C13.120259,271.108856 13.583772,271.037872 13.816983,271.013763 
	C13.923997,271.778717 13.797800,272.567810 13.486443,273.533447 
	C13.244265,273.132050 13.187246,272.554047 13.125243,271.542480 
z"/>
<path fill="#590C35" opacity="1.000000" stroke="none" 
	d="
M15.460960,263.537842 
	C15.407155,262.991913 15.550259,262.274872 15.901730,261.254456 
	C15.959354,261.756317 15.808613,262.561493 15.460960,263.537842 
z"/>
<path fill="#590C35" opacity="1.000000" stroke="none" 
	d="
M14.480989,268.531982 
	C14.235896,268.126312 14.179248,267.547760 14.117764,266.535828 
	C14.112928,266.102478 14.580304,266.035645 14.815246,266.012695 
	C14.923269,266.779510 14.796351,267.569305 14.480989,268.531982 
z"/>
<path fill="#590C35" opacity="1.000000" stroke="none" 
	d="
M11.580130,285.579254 
	C11.477310,285.030518 11.570341,284.313721 11.857341,283.288330 
	C11.959533,283.790253 11.867757,284.600708 11.580130,285.579254 
z"/>
<path fill="#590C35" opacity="1.000000" stroke="none" 
	d="
M10.289802,365.300232 
	C10.075251,364.733795 10.071692,363.904449 10.096834,362.768738 
	C10.250622,363.320709 10.375708,364.179016 10.289802,365.300232 
z"/>
<path fill="#590C35" opacity="1.000000" stroke="none" 
	d="
M21.300112,240.924561 
	C21.238203,240.587280 21.384569,240.045349 21.697638,239.275345 
	C21.745689,239.604813 21.627039,240.162384 21.300112,240.924561 
z"/>
<path fill="#590C35" opacity="1.000000" stroke="none" 
	d="
M9.227666,351.228973 
	C9.096346,350.964050 9.084304,350.450806 9.096024,349.688599 
	C9.195504,349.953278 9.271225,350.466980 9.227666,351.228973 
z"/>
<path fill="#590C35" opacity="1.000000" stroke="none" 
	d="
M11.202484,372.334045 
	C11.088213,372.262024 11.088959,372.014221 11.104546,371.584900 
	C11.330626,371.615173 11.396664,371.866821 11.202484,372.334045 
z"/>
<path fill="#590C35" opacity="1.000000" stroke="none" 
	d="
M9.506460,353.586975 
	C9.325497,353.545990 9.224297,353.239014 9.109907,352.679108 
	C9.225654,352.735748 9.388822,353.034027 9.506460,353.586975 
z"/>
<path fill="#590C35" opacity="1.000000" stroke="none" 
	d="
M22.455902,237.062622 
	C22.224924,237.026947 22.179766,236.828186 22.090008,236.327301 
	C22.045406,236.025192 22.449457,235.983978 22.651987,235.969299 
	C22.913452,236.298828 22.842522,236.613800 22.455902,237.062622 
z"/>
</svg>